<svg width="550" height="90" viewBox="0 0 550 90" fill="none" xmlns="http://www.w3.org/2000/svg">
<path d="M50.8742 68.1694C43.9726 65.606 36.8739 65.2117 30.3667 66.9864C25.8314 68.1695 21.4933 70.5357 17.5495 73.4935L14.7889 75.8598L14.0001 76.6485L15.7748 78.226C15.972 78.226 15.972 78.4232 16.1692 78.6204C16.5636 79.0148 16.958 79.212 17.5495 79.6063L18.7326 80.3951L19.9157 79.4091C20.1129 79.212 20.5073 78.8176 20.9017 78.6204C24.4511 75.6626 28.3948 73.6907 32.5357 72.7048C37.8598 71.3245 43.5782 71.5217 49.2966 73.6907C54.0291 75.4654 63.6914 77.6345 75.3254 72.7048L75.7198 72.5076L76.3113 71.916C76.3113 71.7189 76.5086 71.7188 76.7057 71.5216C77.6917 70.3385 78.6776 69.1554 79.4664 67.7751L83.4101 61.6623L77.1001 65.2116C67.8323 70.3385 59.3532 71.3244 50.8742 68.1694Z" fill="#55B02E"/>
<path d="M23.8595 46.8733C29.1836 45.493 34.902 45.6901 40.6205 47.8592C46.9305 50.2255 63.0998 53.5777 81.2411 37.2111L84.1989 34.2533L84.3961 34.0561L85.1848 33.2674L84.7904 32.2814C84.5932 31.4927 84.1989 30.5067 83.8045 29.5208L82.8186 26.7601L80.8467 28.732C80.6495 29.1264 80.2551 29.3236 79.8607 29.7179C71.1845 38.5914 57.7757 47.662 42.3951 42.1408C35.4936 39.5773 28.3948 39.183 21.8877 40.9576C15.5777 42.7323 10.0564 46.0845 4.92953 50.817V50.6198L1.97172 53.7748C1.97172 53.972 1.77456 53.972 1.57738 54.1692L0.985779 54.7608L1.18298 55.5495C1.38017 56.5354 1.77453 57.5214 1.97172 58.5073L3.15485 61.6623L5.12673 59.0989C5.32391 58.7045 5.71828 58.5073 5.91546 58.113C10.0564 54.3664 15.7748 49.0423 23.8595 46.8733Z" fill="#55B02E"/>
<path d="M4.73255 43.3239C9.26786 38.5914 14.3947 35.6336 19.9159 34.0561C25.24 32.6757 30.9584 32.8729 36.6769 35.042C54.4237 41.5492 69.8044 30.9011 76.5087 25.1826L79.0722 22.6192L80.0581 21.8304L79.2694 20.6473C78.6778 20.0558 78.2834 19.267 77.6919 18.4783L76.5087 16.9007L75.1284 18.2811C74.9312 18.4782 74.5369 18.8726 74.3397 19.0698C66.0578 26.9573 53.2406 35.042 38.6487 29.5208C31.7472 26.9573 24.6484 26.5629 18.1413 28.3376C14.0003 29.5208 10.0566 31.4926 6.11282 34.0561L1.97187 37.4083C1.5775 37.8026 1.38031 37.9998 0.985937 38.3942L0.591598 38.7885V39.3801C0.394411 40.7604 0.394387 42.1408 0.197199 43.3239L0 48.2536L3.35221 44.7042C3.74658 44.3098 4.14098 43.7183 4.73255 43.3239Z" fill="#55B02E"/>
<path d="M56.5929 81.5782L56.1985 82.7614L56.5929 81.5782C56.0013 81.3811 55.607 81.1838 55.0154 80.9866C48.1138 78.4232 41.015 78.0289 34.5079 79.8036C33.1276 80.1979 31.7473 80.5923 30.367 81.1838L25.6344 83.3529L24.4514 83.9445L28.3951 85.3248C29.5782 85.7192 30.7613 86.1136 31.9445 86.5079L32.536 86.7051L33.1276 86.5079C33.7192 86.3107 34.3107 85.9163 34.9023 85.9163C35.2966 85.9163 35.691 85.7192 36.0854 85.522C40.8179 84.3389 45.9447 84.3388 51.466 86.1135C52.0576 86.3107 52.452 86.5079 53.0435 86.7051L54.0295 87.0995L54.621 86.9023C56.0013 86.5079 57.5788 86.1136 58.762 85.522L64.2832 83.5501L58.5648 82.1698C57.9732 81.9726 57.1844 81.7754 56.5929 81.5782Z" fill="#55B02E"/>
<path d="M86.7624 40.7605L83.8046 43.7183C83.4103 44.1126 83.0159 44.507 82.6216 44.9014C74.5369 52.5917 61.5225 60.8736 46.9306 55.3523C40.0291 52.7889 32.9303 52.3945 26.4231 54.1692C20.3103 55.9439 14.789 59.0989 9.85935 63.8314L7.29594 66.592L6.5072 67.578L7.29594 68.7611C7.8875 69.5498 8.2819 70.1414 8.67628 70.9302L9.85935 72.7048L11.2397 70.9302C11.4369 70.733 11.8312 70.3386 12.0284 70.1414C16.7609 65.0145 21.8878 61.8595 27.8034 60.282C33.1275 58.9017 38.8459 59.0989 44.5643 61.2679C49.494 63.0426 54.6209 63.6342 59.7478 63.0427C68.8184 62.0567 77.8891 56.9299 84.5934 51.2114C84.9878 50.817 85.3821 50.6199 85.7765 50.2255L86.3681 49.6339V49.0423C86.3681 47.8592 86.5653 46.4789 86.5653 45.2958L86.7624 40.7605Z" fill="#55B02E"/>
<path d="M11.8311 22.6193L11.2396 21.4362L11.8311 22.6193C13.0143 22.0277 14.3946 21.6333 15.5778 21.239C20.9018 19.8586 26.6202 20.0558 32.3387 22.2249C36.0852 23.6052 39.8318 24.1968 43.9727 24.1968C52.2546 24.1968 60.5364 21.239 68.2268 15.5205L71.1846 13.1543L72.1705 12.3655L70.3958 10.9852C69.8043 10.3936 69.0155 9.80209 68.2268 9.40771L67.0436 8.61897L66.0577 9.40771C65.6633 9.6049 65.4661 9.99926 65.0717 10.1964C54.6208 18.0839 44.1699 20.253 34.3106 16.5065C27.2118 13.943 20.113 13.3515 13.0143 15.5205C12.4227 15.7177 11.8312 15.9149 11.0424 16.1121L10.6481 16.3093L10.0565 16.9008C10.0565 17.098 9.85932 17.098 9.66213 17.2952C8.87338 18.4783 7.88741 19.4643 7.09866 20.6474L3.35211 26.3658L9.46493 23.2108C10.4509 23.2108 11.2396 22.8165 11.8311 22.6193Z" fill="#55B02E"/>
<path d="M28.0006 9.21047L28.5921 9.40767C31.1555 10.3936 35.0993 11.3795 40.029 11.3795C45.1559 11.3795 50.0856 10.1964 55.0153 8.22454L61.128 5.26673L56.9871 3.88645C55.804 3.49207 54.6208 3.0977 53.2405 2.90051H52.649L52.0575 3.09765C51.4659 3.29484 50.8743 3.68926 50.2827 3.88645C44.3671 6.05551 38.4515 6.44989 32.7331 4.87239C32.1415 4.6752 31.5499 4.47798 30.9584 4.28079L30.3668 4.08359L29.7752 4.28079C28.5921 4.67516 27.409 5.06956 26.2259 5.66112L21.6906 7.633L26.4231 9.01327C26.8175 8.81609 27.409 9.01329 28.0006 9.21047Z" fill="#55B02E"/>
<path d="M128.355 79V42.5065H119.742V34.1601H131.463L128.355 37.0014V30.1644C128.355 24.6001 129.746 20.3973 132.528 17.5559C135.37 14.7146 139.484 13.2939 144.87 13.2939C146.173 13.2939 147.534 13.3827 148.955 13.5603C150.435 13.7379 151.707 14.0635 152.773 14.537V23.2386C152.003 22.9427 151.086 22.7059 150.02 22.5283C148.955 22.3507 147.919 22.2619 146.913 22.2619C144.604 22.2619 142.769 22.9427 141.408 24.3041C140.046 25.6064 139.365 27.7374 139.365 30.6972V36.1135L137.767 34.1601H168.933V79H157.834V42.5065H139.454V79H128.355ZM157.213 25.7248V14.8922H169.555V25.7248H157.213ZM181.005 79V45.3478C181.005 43.5128 180.945 41.6482 180.827 39.7539C180.709 37.8597 180.531 35.9951 180.294 34.1601H191.038L191.926 43.0392H190.861C192.281 39.9019 194.383 37.5045 197.165 35.8471C199.947 34.1305 203.173 33.2721 206.843 33.2721C212.111 33.2721 216.077 34.752 218.741 37.7117C221.405 40.6715 222.737 45.2886 222.737 51.5633V79H211.638V52.096C211.638 48.4852 210.927 45.9102 209.507 44.3711C208.145 42.7729 206.074 41.9737 203.291 41.9737C199.858 41.9737 197.135 43.0392 195.123 45.1703C193.11 47.3013 192.104 50.1426 192.104 53.6943V79H181.005ZM251.82 79.8879C247.913 79.8879 244.48 78.9704 241.52 77.1354C238.56 75.2411 236.251 72.5478 234.594 69.0553C232.937 65.5628 232.108 61.3896 232.108 56.5356C232.108 51.6817 232.937 47.538 234.594 44.1048C236.251 40.6123 238.56 37.9485 241.52 36.1135C244.48 34.2192 247.913 33.2721 251.82 33.2721C255.608 33.2721 258.923 34.2192 261.764 36.1135C264.665 37.9485 266.589 40.4347 267.536 43.572H266.559L267.536 34.1601H278.191C278.013 35.9951 277.836 37.8597 277.658 39.7539C277.54 41.6482 277.481 43.5128 277.481 45.3478V79H266.47L266.382 69.7656H267.447C266.5 72.8438 264.576 75.3003 261.676 77.1354C258.775 78.9704 255.49 79.8879 251.82 79.8879ZM254.927 71.3639C258.42 71.3639 261.232 70.1504 263.363 67.7234C265.494 65.2372 266.559 61.508 266.559 56.5356C266.559 51.5633 265.494 47.8636 263.363 45.4366C261.232 43.0096 258.42 41.7962 254.927 41.7962C251.435 41.7962 248.623 43.0096 246.492 45.4366C244.361 47.8636 243.296 51.5633 243.296 56.5356C243.296 61.508 244.332 65.2372 246.403 67.7234C248.534 70.1504 251.376 71.3639 254.927 71.3639ZM289.567 79V45.3478C289.567 43.5128 289.507 41.6482 289.389 39.7539C289.271 37.8597 289.093 35.9951 288.856 34.1601H299.6L300.488 43.0392H299.423C300.843 39.9019 302.945 37.5045 305.727 35.8471C308.509 34.1305 311.735 33.2721 315.405 33.2721C320.673 33.2721 324.639 34.752 327.303 37.7117C329.967 40.6715 331.299 45.2886 331.299 51.5633V79H320.2V52.096C320.2 48.4852 319.49 45.9102 318.069 44.3711C316.707 42.7729 314.636 41.9737 311.853 41.9737C308.42 41.9737 305.697 43.0392 303.685 45.1703C301.672 47.3013 300.666 50.1426 300.666 53.6943V79H289.567ZM363.667 79.8879C359.05 79.8879 354.995 78.9408 351.503 77.0466C348.069 75.1523 345.405 72.459 343.511 68.9665C341.617 65.4148 340.67 61.212 340.67 56.358C340.67 51.5041 341.617 47.3605 343.511 43.9272C345.465 40.4939 348.158 37.8597 351.591 36.0247C355.025 34.1896 359.05 33.2721 363.667 33.2721C366.627 33.2721 369.498 33.7457 372.28 34.6928C375.121 35.5807 377.43 36.883 379.206 38.5996L375.832 46.3245C374.233 44.8447 372.428 43.7496 370.415 43.0392C368.462 42.2697 366.538 41.885 364.644 41.885C360.678 41.885 357.57 43.128 355.321 45.6142C353.13 48.1004 352.035 51.7113 352.035 56.4468C352.035 61.1824 353.13 64.8229 355.321 67.3682C357.57 69.9136 360.678 71.1863 364.644 71.1863C366.479 71.1863 368.373 70.8311 370.326 70.1208C372.339 69.4105 374.174 68.3154 375.832 66.8355L379.206 74.4716C377.371 76.1883 375.032 77.5201 372.191 78.4672C369.409 79.4144 366.568 79.8879 363.667 79.8879ZM408.608 79.8879C401.091 79.8879 395.201 77.8161 390.939 73.6725C386.677 69.5289 384.546 63.8462 384.546 56.6244C384.546 51.948 385.463 47.8636 387.298 44.3711C389.133 40.8786 391.679 38.1557 394.934 36.2023C398.249 34.2488 402.097 33.2721 406.477 33.2721C410.798 33.2721 414.409 34.1896 417.31 36.0247C420.21 37.8597 422.401 40.4347 423.881 43.7496C425.42 47.0645 426.189 50.9417 426.189 55.3813V58.3115H393.514V52.4512H418.287L416.777 53.6943C416.777 49.5507 415.889 46.3837 414.113 44.1935C412.397 42.0033 409.881 40.9082 406.566 40.9082C402.896 40.9082 400.055 42.2105 398.042 44.8151C396.089 47.4197 395.112 51.0601 395.112 55.7365V56.8908C395.112 61.7448 396.296 65.3852 398.664 67.8122C401.091 70.18 404.494 71.3639 408.875 71.3639C411.42 71.3639 413.788 71.0383 415.978 70.3872C418.227 69.6768 420.358 68.5521 422.371 67.0131L425.656 74.4716C423.525 76.1883 420.98 77.5201 418.02 78.4672C415.06 79.4144 411.923 79.8879 408.608 79.8879ZM474.667 79.8879C470.76 79.8879 467.327 78.9704 464.367 77.1354C461.407 75.2411 459.099 72.5478 457.441 69.0553C455.784 65.5628 454.955 61.3896 454.955 56.5356C454.955 51.6817 455.784 47.538 457.441 44.1048C459.099 40.6123 461.407 37.9485 464.367 36.1135C467.327 34.2192 470.76 33.2721 474.667 33.2721C478.455 33.2721 481.77 34.2192 484.611 36.1135C487.512 37.9485 489.436 40.4347 490.383 43.572H489.406L490.383 34.1601H501.038C500.86 35.9951 500.683 37.8597 500.505 39.7539C500.387 41.6482 500.328 43.5128 500.328 45.3478V79H489.317L489.229 69.7656H490.294C489.347 72.8438 487.423 75.3003 484.523 77.1354C481.622 78.9704 478.337 79.8879 474.667 79.8879ZM477.774 71.3639C481.267 71.3639 484.079 70.1504 486.21 67.7234C488.341 65.2372 489.406 61.508 489.406 56.5356C489.406 51.5633 488.341 47.8636 486.21 45.4366C484.079 43.0096 481.267 41.7962 477.774 41.7962C474.282 41.7962 471.47 43.0096 469.339 45.4366C467.208 47.8636 466.143 51.5633 466.143 56.5356C466.143 61.508 467.179 65.2372 469.25 67.7234C471.381 70.1504 474.223 71.3639 477.774 71.3639ZM512.414 79V34.1601H523.513V79H512.414ZM511.792 25.7248V14.8922H524.134V25.7248H511.792Z" fill="white"/>
<path d="M434.345 79V66.6579H446.776V79H434.345Z" fill="#55B02E"/>
</svg>
